<svg width="24" height="24" viewBox="0 0 24 24" fill="none" xmlns="http://www.w3.org/2000/svg">
<path d="M10.0005 5.00049C10.0005 4.47006 10.2112 3.96135 10.5863 3.58627C10.9613 3.2112 11.4701 3.00049 12.0005 3.00049C12.5309 3.00049 13.0396 3.2112 13.4147 3.58627C13.7898 3.96135 14.0005 4.47006 14.0005 5.00049C15.1489 5.54352 16.1279 6.38881 16.8325 7.44579C17.5372 8.50276 17.9409 9.73156 18.0005 11.0005V14.0005C18.0757 14.6222 18.2959 15.2175 18.6433 15.7386C18.9907 16.2597 19.4555 16.6919 20.0005 17.0005H4.00049C4.54543 16.6919 5.0103 16.2597 5.35768 15.7386C5.70505 15.2175 5.92523 14.6222 6.00049 14.0005V11.0005C6.06005 9.73156 6.46379 8.50276 7.16844 7.44579C7.87309 6.38881 8.85208 5.54352 10.0005 5.00049" stroke="white" stroke-width="1.6" stroke-linecap="round" stroke-linejoin="round"/>
<path d="M8.99951 17V18C8.99951 18.7956 9.31558 19.5587 9.87819 20.1213C10.4408 20.6839 11.2039 21 11.9995 21C12.7952 21 13.5582 20.6839 14.1208 20.1213C14.6834 19.5587 14.9995 18.7956 14.9995 18V17" stroke="white" stroke-width="1.6" stroke-linecap="round" stroke-linejoin="round"/>
<path d="M21.0001 6.72749C20.3441 5.30074 19.3916 4.03018 18.2061 3.00049" stroke="white" stroke-width="1.6" stroke-linecap="round" stroke-linejoin="round"/>
<path d="M3 6.72749C3.65535 5.30093 4.60715 4.03038 5.792 3.00049" stroke="white" stroke-width="1.6" stroke-linecap="round" stroke-linejoin="round"/>
</svg>
