<svg width="25" height="24" viewBox="0 0 25 24" fill="none" xmlns="http://www.w3.org/2000/svg">
<path d="M5.68115 12H3.68115L12.6812 3L21.6812 12H19.6812" stroke="#7D8490" stroke-width="1.6" stroke-linecap="round" stroke-linejoin="round"/>
<path d="M5.68115 12V19C5.68115 19.5304 5.89187 20.0391 6.26694 20.4142C6.64201 20.7893 7.15072 21 7.68115 21H17.6812C18.2116 21 18.7203 20.7893 19.0954 20.4142C19.4704 20.0391 19.6812 19.5304 19.6812 19V12" stroke="#7D8490" stroke-width="1.6" stroke-linecap="round" stroke-linejoin="round"/>
<path d="M9.68115 21V15C9.68115 14.4696 9.89187 13.9609 10.2669 13.5858C10.642 13.2107 11.1507 13 11.6812 13H13.6812C14.2116 13 14.7203 13.2107 15.0954 13.5858C15.4704 13.9609 15.6812 14.4696 15.6812 15V21" stroke="#7D8490" stroke-width="1.6" stroke-linecap="round" stroke-linejoin="round"/>
</svg>
