<svg width="25" height="24" viewBox="0 0 25 24" fill="none" xmlns="http://www.w3.org/2000/svg">
<path d="M16.7734 6H19.7734C20.0387 6 20.293 6.10536 20.4805 6.29289C20.6681 6.48043 20.7734 6.73478 20.7734 7V18C20.7734 18.5304 20.5627 19.0391 20.1877 19.4142C19.8126 19.7893 19.3039 20 18.7734 20C18.243 20 17.7343 19.7893 17.3592 19.4142C16.9842 19.0391 16.7734 18.5304 16.7734 18V5C16.7734 4.73478 16.6681 4.48043 16.4805 4.29289C16.293 4.10536 16.0387 4 15.7734 4H5.77344C5.50822 4 5.25387 4.10536 5.06633 4.29289C4.87879 4.48043 4.77344 4.73478 4.77344 5V17C4.77344 17.7956 5.08951 18.5587 5.65212 19.1213C6.21473 19.6839 6.97779 20 7.77344 20H18.7734" stroke="#7D8490" stroke-width="1.6" stroke-linecap="round" stroke-linejoin="round"/>
<path d="M8.77344 8H12.7734" stroke="#7D8490" stroke-width="1.6" stroke-linecap="round" stroke-linejoin="round"/>
<path d="M8.77344 12H12.7734" stroke="#7D8490" stroke-width="1.6" stroke-linecap="round" stroke-linejoin="round"/>
<path d="M8.77344 16H12.7734" stroke="#7D8490" stroke-width="1.6" stroke-linecap="round" stroke-linejoin="round"/>
</svg>
